<mxfile host="app.diagrams.net" modified="2022-02-01T22:22:24.727Z" agent="5.0 (Windows NT 10.0; Win64; x64) AppleWebKit/537.36 (KHTML, like Gecko) Chrome/97.0.4692.99 Safari/537.36" etag="yIGY0-lN8CDMsCd62jfn" version="16.5.2" type="github">
  <diagram id="C5RBs43oDa-KdzZeNtuy" name="Page-1">
    <mxGraphModel dx="1532" dy="767" grid="1" gridSize="10" guides="1" tooltips="1" connect="1" arrows="1" fold="1" page="1" pageScale="1" pageWidth="827" pageHeight="1169" math="0" shadow="0">
      <root>
        <mxCell id="WIyWlLk6GJQsqaUBKTNV-0" />
        <mxCell id="WIyWlLk6GJQsqaUBKTNV-1" parent="WIyWlLk6GJQsqaUBKTNV-0" />
        <mxCell id="Qfoclvtc050nTDD0GzlP-6" style="edgeStyle=orthogonalEdgeStyle;rounded=0;orthogonalLoop=1;jettySize=auto;html=1;" edge="1" parent="WIyWlLk6GJQsqaUBKTNV-1" source="Qfoclvtc050nTDD0GzlP-0" target="Qfoclvtc050nTDD0GzlP-1">
          <mxGeometry relative="1" as="geometry" />
        </mxCell>
        <mxCell id="Qfoclvtc050nTDD0GzlP-0" value="Начало" style="ellipse;whiteSpace=wrap;html=1;aspect=fixed;" vertex="1" parent="WIyWlLk6GJQsqaUBKTNV-1">
          <mxGeometry x="334" y="70" width="80" height="80" as="geometry" />
        </mxCell>
        <mxCell id="Qfoclvtc050nTDD0GzlP-7" style="edgeStyle=orthogonalEdgeStyle;rounded=0;orthogonalLoop=1;jettySize=auto;html=1;entryX=0.5;entryY=0;entryDx=0;entryDy=0;" edge="1" parent="WIyWlLk6GJQsqaUBKTNV-1" source="Qfoclvtc050nTDD0GzlP-1" target="Qfoclvtc050nTDD0GzlP-2">
          <mxGeometry relative="1" as="geometry">
            <mxPoint x="230" y="260" as="targetPoint" />
          </mxGeometry>
        </mxCell>
        <mxCell id="Qfoclvtc050nTDD0GzlP-14" style="edgeStyle=orthogonalEdgeStyle;rounded=0;orthogonalLoop=1;jettySize=auto;html=1;entryX=0.5;entryY=0;entryDx=0;entryDy=0;" edge="1" parent="WIyWlLk6GJQsqaUBKTNV-1" source="Qfoclvtc050nTDD0GzlP-1" target="Qfoclvtc050nTDD0GzlP-3">
          <mxGeometry relative="1" as="geometry">
            <mxPoint x="560" y="260" as="targetPoint" />
          </mxGeometry>
        </mxCell>
        <mxCell id="Qfoclvtc050nTDD0GzlP-1" value="A &amp;gt; B" style="rhombus;whiteSpace=wrap;html=1;" vertex="1" parent="WIyWlLk6GJQsqaUBKTNV-1">
          <mxGeometry x="334" y="220" width="80" height="80" as="geometry" />
        </mxCell>
        <mxCell id="Qfoclvtc050nTDD0GzlP-11" style="edgeStyle=orthogonalEdgeStyle;rounded=0;orthogonalLoop=1;jettySize=auto;html=1;entryX=0.417;entryY=0.083;entryDx=0;entryDy=0;entryPerimeter=0;" edge="1" parent="WIyWlLk6GJQsqaUBKTNV-1" source="Qfoclvtc050nTDD0GzlP-2" target="Qfoclvtc050nTDD0GzlP-8">
          <mxGeometry relative="1" as="geometry">
            <mxPoint x="110" y="400" as="targetPoint" />
          </mxGeometry>
        </mxCell>
        <mxCell id="Qfoclvtc050nTDD0GzlP-15" style="edgeStyle=orthogonalEdgeStyle;rounded=0;orthogonalLoop=1;jettySize=auto;html=1;" edge="1" parent="WIyWlLk6GJQsqaUBKTNV-1" source="Qfoclvtc050nTDD0GzlP-2" target="Qfoclvtc050nTDD0GzlP-3">
          <mxGeometry relative="1" as="geometry" />
        </mxCell>
        <mxCell id="Qfoclvtc050nTDD0GzlP-2" value="A &amp;gt; C" style="rhombus;whiteSpace=wrap;html=1;" vertex="1" parent="WIyWlLk6GJQsqaUBKTNV-1">
          <mxGeometry x="190" y="360" width="80" height="80" as="geometry" />
        </mxCell>
        <mxCell id="Qfoclvtc050nTDD0GzlP-16" style="edgeStyle=orthogonalEdgeStyle;rounded=0;orthogonalLoop=1;jettySize=auto;html=1;entryX=0.5;entryY=0;entryDx=0;entryDy=0;" edge="1" parent="WIyWlLk6GJQsqaUBKTNV-1" source="Qfoclvtc050nTDD0GzlP-3" target="Qfoclvtc050nTDD0GzlP-10">
          <mxGeometry relative="1" as="geometry">
            <Array as="points">
              <mxPoint x="560" y="490" />
              <mxPoint x="360" y="490" />
            </Array>
          </mxGeometry>
        </mxCell>
        <mxCell id="Qfoclvtc050nTDD0GzlP-17" style="edgeStyle=orthogonalEdgeStyle;rounded=0;orthogonalLoop=1;jettySize=auto;html=1;" edge="1" parent="WIyWlLk6GJQsqaUBKTNV-1" source="Qfoclvtc050nTDD0GzlP-3">
          <mxGeometry relative="1" as="geometry">
            <mxPoint x="690" y="520" as="targetPoint" />
          </mxGeometry>
        </mxCell>
        <mxCell id="Qfoclvtc050nTDD0GzlP-3" value="B &amp;gt; C" style="rhombus;whiteSpace=wrap;html=1;" vertex="1" parent="WIyWlLk6GJQsqaUBKTNV-1">
          <mxGeometry x="520" y="360" width="80" height="80" as="geometry" />
        </mxCell>
        <mxCell id="Qfoclvtc050nTDD0GzlP-13" style="edgeStyle=orthogonalEdgeStyle;rounded=0;orthogonalLoop=1;jettySize=auto;html=1;" edge="1" parent="WIyWlLk6GJQsqaUBKTNV-1" source="Qfoclvtc050nTDD0GzlP-8" target="Qfoclvtc050nTDD0GzlP-12">
          <mxGeometry relative="1" as="geometry">
            <mxPoint x="120" y="740" as="targetPoint" />
            <Array as="points">
              <mxPoint x="120" y="730" />
            </Array>
          </mxGeometry>
        </mxCell>
        <mxCell id="Qfoclvtc050nTDD0GzlP-8" value="Напечатать A" style="rounded=1;whiteSpace=wrap;html=1;" vertex="1" parent="WIyWlLk6GJQsqaUBKTNV-1">
          <mxGeometry x="60" y="525" width="120" height="60" as="geometry" />
        </mxCell>
        <mxCell id="Qfoclvtc050nTDD0GzlP-27" style="edgeStyle=orthogonalEdgeStyle;rounded=0;orthogonalLoop=1;jettySize=auto;html=1;entryX=1;entryY=0.5;entryDx=0;entryDy=0;" edge="1" parent="WIyWlLk6GJQsqaUBKTNV-1" source="Qfoclvtc050nTDD0GzlP-9" target="Qfoclvtc050nTDD0GzlP-12">
          <mxGeometry relative="1" as="geometry">
            <mxPoint x="660" y="710" as="targetPoint" />
            <Array as="points">
              <mxPoint x="660" y="730" />
            </Array>
          </mxGeometry>
        </mxCell>
        <mxCell id="Qfoclvtc050nTDD0GzlP-9" value="Напечатать С" style="rounded=1;whiteSpace=wrap;html=1;" vertex="1" parent="WIyWlLk6GJQsqaUBKTNV-1">
          <mxGeometry x="600" y="525" width="120" height="60" as="geometry" />
        </mxCell>
        <mxCell id="Qfoclvtc050nTDD0GzlP-29" style="edgeStyle=orthogonalEdgeStyle;rounded=0;orthogonalLoop=1;jettySize=auto;html=1;entryX=0.25;entryY=0.091;entryDx=0;entryDy=0;entryPerimeter=0;" edge="1" parent="WIyWlLk6GJQsqaUBKTNV-1" source="Qfoclvtc050nTDD0GzlP-10" target="Qfoclvtc050nTDD0GzlP-12">
          <mxGeometry relative="1" as="geometry" />
        </mxCell>
        <mxCell id="Qfoclvtc050nTDD0GzlP-10" value="Напечатать B" style="rounded=1;whiteSpace=wrap;html=1;" vertex="1" parent="WIyWlLk6GJQsqaUBKTNV-1">
          <mxGeometry x="300" y="525" width="120" height="60" as="geometry" />
        </mxCell>
        <mxCell id="Qfoclvtc050nTDD0GzlP-12" value="Конец" style="ellipse;whiteSpace=wrap;html=1;aspect=fixed;" vertex="1" parent="WIyWlLk6GJQsqaUBKTNV-1">
          <mxGeometry x="340" y="690" width="80" height="80" as="geometry" />
        </mxCell>
        <mxCell id="Qfoclvtc050nTDD0GzlP-18" value="true" style="text;html=1;align=center;verticalAlign=middle;resizable=0;points=[];autosize=1;strokeColor=none;fillColor=none;" vertex="1" parent="WIyWlLk6GJQsqaUBKTNV-1">
          <mxGeometry x="240" y="240" width="40" height="20" as="geometry" />
        </mxCell>
        <mxCell id="Qfoclvtc050nTDD0GzlP-19" value="true" style="text;html=1;align=center;verticalAlign=middle;resizable=0;points=[];autosize=1;strokeColor=none;fillColor=none;" vertex="1" parent="WIyWlLk6GJQsqaUBKTNV-1">
          <mxGeometry x="110" y="380" width="40" height="20" as="geometry" />
        </mxCell>
        <mxCell id="Qfoclvtc050nTDD0GzlP-22" value="falste" style="text;html=1;align=center;verticalAlign=middle;resizable=0;points=[];autosize=1;strokeColor=none;fillColor=none;" vertex="1" parent="WIyWlLk6GJQsqaUBKTNV-1">
          <mxGeometry x="470" y="240" width="40" height="20" as="geometry" />
        </mxCell>
        <mxCell id="Qfoclvtc050nTDD0GzlP-23" value="false" style="text;html=1;align=center;verticalAlign=middle;resizable=0;points=[];autosize=1;strokeColor=none;fillColor=none;" vertex="1" parent="WIyWlLk6GJQsqaUBKTNV-1">
          <mxGeometry x="610" y="380" width="40" height="20" as="geometry" />
        </mxCell>
        <mxCell id="Qfoclvtc050nTDD0GzlP-24" value="false&lt;br&gt;" style="text;html=1;align=center;verticalAlign=middle;resizable=0;points=[];autosize=1;strokeColor=none;fillColor=none;" vertex="1" parent="WIyWlLk6GJQsqaUBKTNV-1">
          <mxGeometry x="360" y="380" width="40" height="20" as="geometry" />
        </mxCell>
        <mxCell id="Qfoclvtc050nTDD0GzlP-25" value="true&lt;br&gt;" style="text;html=1;align=center;verticalAlign=middle;resizable=0;points=[];autosize=1;strokeColor=none;fillColor=none;" vertex="1" parent="WIyWlLk6GJQsqaUBKTNV-1">
          <mxGeometry x="420" y="470" width="40" height="20" as="geometry" />
        </mxCell>
      </root>
    </mxGraphModel>
  </diagram>
</mxfile>
